<svg width="16" height="16" viewBox="0 0 16 16" fill="none" xmlns="http://www.w3.org/2000/svg">
<path d="M4 1.33325C4.36819 1.33325 4.66667 1.63173 4.66667 1.99992H13.3333C13.5644 1.99992 13.779 2.11955 13.9004 2.3161C14.0219 2.51264 14.0329 2.75807 13.9296 2.96473L12.7454 5.33325L13.9296 7.70178C14.0329 7.90843 14.0219 8.15386 13.9004 8.35041C13.779 8.54695 13.5644 8.66659 13.3333 8.66659H4.66667V13.9999H5.33333C5.70152 13.9999 6 14.2984 6 14.6666C6 15.0348 5.70152 15.3333 5.33333 15.3333H2.66667C2.29848 15.3333 2 15.0348 2 14.6666C2 14.2984 2.29848 13.9999 2.66667 13.9999H3.33333V1.99992C3.33333 1.63173 3.63181 1.33325 4 1.33325Z" fill="#272727"/>
</svg>
