<svg width="16" height="16" viewBox="0 0 16 16" fill="none" xmlns="http://www.w3.org/2000/svg">
<g clip-path="url(#clip0_576_4793)">
<path d="M8 0C3.58875 0 0 3.58887 0 8C0 12.4114 3.58875 16 8 16C12.4113 16 16 12.4114 16 8C16 3.58887 12.4113 0 8 0ZM8 14.0952C4.63916 14.0952 1.90478 11.3611 1.90478 8C1.90478 4.63916 4.63916 1.90478 8 1.90478C11.3608 1.90478 14.0952 4.63916 14.0952 8C14.0952 11.3611 11.3608 14.0952 8 14.0952Z" fill="#272727"/>
<path d="M8.0754 3.61743C7.67509 3.61743 7.35055 3.9419 7.35055 4.34228V7.62378L5.03659 9.93774C4.75343 10.2207 4.75343 10.6797 5.03659 10.9629C5.31965 11.2458 5.77859 11.2458 6.06171 10.9629L8.80031 8.22434V7.48165V4.34228C8.80031 3.9419 8.47577 3.61743 8.0754 3.61743Z" fill="#272727"/>
</g>
<defs>
<clipPath id="clip0_576_4793">
<rect width="16" height="16" fill="white"/>
</clipPath>
</defs>
</svg>
