<svg width="16" height="16" viewBox="0 0 16 16" fill="none" xmlns="http://www.w3.org/2000/svg">
<path fill-rule="evenodd" clip-rule="evenodd" d="M7.6685 14.7064C7.85773 14.874 8.14227 14.874 8.3315 14.7064L12.2427 11.2426C13.0818 10.4035 13.6532 9.3344 13.8847 8.17051C14.1162 7.00663 13.9974 5.80023 13.5433 4.70388C13.0891 3.60753 12.3201 2.67046 11.3334 2.01118C10.3467 1.35189 9.18669 1 8 1C6.81332 1 5.65328 1.35189 4.66659 2.01118C3.6799 2.67046 2.91086 3.60753 2.45673 4.70388C2.0026 5.80023 1.88378 7.00663 2.11529 8.17051C2.34679 9.3344 2.91823 10.4035 3.75734 11.2426L7.6685 14.7064ZM8 9C9.10457 9 10 8.10457 10 7C10 5.89543 9.10457 5 8 5C6.89543 5 6 5.89543 6 7C6 8.10457 6.89543 9 8 9Z" fill="#272727"/>
</svg>
